<svg xmlns="http://www.w3.org/2000/svg" viewBox="0 0 100 100">
  <defs>
    <linearGradient id="gradient" x1="0%" y1="0%" x2="100%" y2="100%">
      <stop offset="0%" stop-color="#7F52FF" />
      <stop offset="100%" stop-color="#9B6DFF" />
    </linearGradient>
  </defs>
  <path fill="url(#gradient)" d="M50,5C25.1,5,5,25.1,5,50s20.1,45,45,45s45-20.1,45-45S74.9,5,50,5z M50,85c-19.3,0-35-15.7-35-35
    s15.7-35,35-35s35,15.7,35,35S69.3,85,50,85z"/>
  <path fill="url(#gradient)" d="M50,15c-19.3,0-35,15.7-35,35s15.7,35,35,35s35-15.7,35-35S69.3,15,50,15z M50,75
    c-13.8,0-25-11.2-25-25s11.2-25,25-25s25,11.2,25,25S63.8,75,50,75z"/>
  <path fill="url(#gradient)" d="M50,25c-13.8,0-25,11.2-25,25s11.2,25,25,25s25-11.2,25-25S63.8,25,50,25z M50,65
    c-8.3,0-15-6.7-15-15s6.7-15,15-15s15,6.7,15,15S58.3,65,50,65z"/>
  <path fill="url(#gradient)" d="M50,35c-8.3,0-15,6.7-15,15s6.7,15,15,15s15-6.7,15-15S58.3,35,50,35z M50,55
    c-2.8,0-5-2.2-5-5s2.2-5,5-5s5,2.2,5,5S52.8,55,50,55z"/>
  <circle fill="url(#gradient)" cx="50" cy="50" r="5"/>
</svg>