<svg width="1112" height="608" viewBox="0 0 1112 608" fill="none" xmlns="http://www.w3.org/2000/svg">
<path d="M612.624 -301.116L792.601 67.6716C822.913 129.782 797.104 204.69 734.957 234.984L365.948 414.854C303.8 445.147 228.847 419.354 198.536 357.243L18.5585 -11.5448C-11.753 -73.6552 14.0553 -148.563 76.2029 -178.856L445.212 -358.726C507.359 -389.019 582.312 -363.227 612.624 -301.116Z" fill="url(#paint0_linear_1821_18411)"/>
<path d="M623.693 -195.519L834.874 84.5604C870.44 131.73 861.011 198.782 813.813 234.327L533.566 445.382C486.368 480.927 419.275 471.503 383.709 424.334L172.528 144.254C136.962 97.0848 146.391 30.0317 193.589 -5.51296L473.836 -216.568C521.034 -252.112 588.127 -242.689 623.693 -195.519Z" fill="url(#paint1_linear_1821_18411)"/>
<path d="M650.211 -108.724L873.094 91.8413C910.631 125.62 913.662 183.415 879.863 220.93L679.178 443.68C645.379 481.195 587.549 484.224 550.012 450.445L327.129 249.881C289.591 216.102 286.56 158.307 320.359 120.792L521.045 -101.958C554.844 -139.473 612.673 -142.502 650.211 -108.724Z" fill="url(#paint2_linear_1821_18411)"/>
<path d="M686.613 -40.2266L906.344 91.7226C943.349 113.944 955.323 161.938 933.088 198.921L801.059 418.522C778.825 455.505 730.801 467.471 693.797 445.249L474.065 313.3C437.06 291.079 425.087 243.084 447.321 206.102L579.35 -13.499C601.585 -50.4817 649.608 -62.448 686.613 -40.2266Z" fill="url(#paint3_linear_1821_18411)"/>
<path d="M728.348 11.3108L934.224 86.1991C968.899 98.8122 986.778 137.13 974.157 171.784L899.224 377.538C886.604 412.192 848.263 430.06 813.588 417.447L607.711 342.559C573.036 329.946 555.157 291.628 567.778 256.974L642.711 51.2198C655.332 16.5656 693.673 -1.30226 728.348 11.3108Z" fill="url(#paint4_linear_1821_18411)"/>
<path d="M771.757 47.7447L956.715 77.0216C987.864 81.9522 1009.12 111.185 1004.18 142.316L974.887 327.162C969.954 358.293 940.703 379.532 909.554 374.602L724.596 345.325C693.447 340.394 672.196 311.161 677.129 280.03L706.424 95.1836C711.357 64.0531 740.608 42.8141 771.757 47.7447Z" fill="url(#paint5_linear_1821_18411)"/>
<path d="M814.134 71.2408L974.091 65.6584C1001.03 64.7182 1023.63 85.781 1024.57 112.704L1030.16 272.564C1031.1 299.487 1010.02 322.075 983.083 323.015L823.127 328.597C796.188 329.537 773.587 308.474 772.646 281.551L767.06 121.691C766.119 94.7681 787.195 72.181 814.134 71.2408Z" fill="url(#paint6_linear_1821_18411)"/>
<path d="M850.363 87.288L982.505 51.902C1004.76 45.943 1027.63 59.1407 1033.59 81.3801L1069 213.442C1074.96 235.682 1061.76 258.541 1039.5 264.5L907.363 299.886C885.11 305.845 862.237 292.647 856.274 270.408L820.867 138.346C814.904 116.106 828.11 93.2471 850.363 87.288Z" fill="url(#paint7_linear_1821_18411)"/>
<path d="M888.654 88.3768L995.468 40.8489C1013.46 32.8449 1034.53 40.9298 1042.54 58.907L1090.1 165.656C1098.1 183.634 1090.01 204.695 1072.03 212.699L965.213 260.227C947.225 268.231 926.15 260.146 918.142 242.169L870.585 135.42C862.577 117.443 870.666 96.3807 888.654 88.3768Z" fill="url(#paint8_linear_1821_18411)"/>
<path d="M918.834 86.2772L1000.7 28.9899C1014.48 19.3429 1033.48 22.6912 1043.14 36.4686L1100.46 118.283C1110.11 132.061 1106.76 151.05 1092.98 160.697L1011.11 217.984C997.326 227.631 978.325 224.283 968.673 210.506L911.351 128.691C901.698 114.913 905.048 95.9242 918.834 86.2772Z" fill="url(#paint9_linear_1821_18411)"/>
<path d="M943.819 79.6005L1003.15 18.1964C1013.14 7.85563 1029.63 7.56767 1039.98 17.5537L1101.42 76.8512C1111.77 86.8372 1112.05 103.315 1102.06 113.656L1042.73 175.06C1032.74 185.401 1016.25 185.689 1005.9 175.703L944.462 116.405C934.115 106.419 933.827 89.9413 943.819 79.6005Z" fill="url(#paint10_linear_1821_18411)"/>
<path d="M963.688 69.9197L1003.45 8.73538C1010.14 -1.57041 1023.93 -4.4994 1034.24 2.19326L1095.46 41.9266C1105.77 48.6192 1108.71 62.3993 1102.01 72.7051L1062.25 133.889C1055.55 144.195 1041.77 147.124 1031.45 140.431L970.234 100.698C959.922 94.0053 956.991 80.2255 963.688 69.9197Z" fill="url(#paint11_linear_1821_18411)"/>
<path d="M978.773 58.5681L1002.15 0.744893C1006.09 -8.99125 1017.17 -13.695 1026.92 -9.76134L1084.77 13.6008C1094.51 17.5344 1099.22 28.6158 1095.29 38.3519L1071.91 96.1751C1067.97 105.911 1056.89 110.615 1047.14 106.681L989.286 83.3192C979.544 79.3856 974.837 68.3042 978.773 58.5681Z" fill="url(#paint12_linear_1821_18411)"/>
<path d="M989.586 46.5796L999.762 -5.74126C1001.48 -14.5516 1010.01 -20.305 1018.83 -18.5925L1071.18 -8.42235C1079.99 -6.7098 1085.75 1.82023 1084.04 10.6305L1073.86 62.9514C1072.15 71.7617 1063.61 77.5157 1054.8 75.8032L1002.45 65.633C993.629 63.9205 987.872 55.3899 989.586 46.5796Z" fill="url(#paint13_linear_1821_18411)"/>
<path d="M997.213 34.9484L997.213 -10.9441C997.213 -18.6719 1003.35 -24.9365 1010.92 -24.9365L1055.89 -24.9365C1063.46 -24.9365 1069.6 -18.6718 1069.6 -10.9441L1069.6 34.9484C1069.6 42.6761 1063.46 48.9408 1055.89 48.9408L1010.92 48.9408C1003.35 48.9408 997.213 42.6761 997.213 34.9484Z" fill="url(#paint14_linear_1821_18411)"/>
<defs>
<linearGradient id="paint0_linear_1821_18411" x1="-36.3251" y1="-124.006" x2="557.603" y2="-413.857" gradientUnits="userSpaceOnUse">
<stop stop-color="#631BF3" stop-opacity="0"/>
<stop offset="0.4" stop-color="#EB30FF" stop-opacity="0.3"/>
<stop offset="0.7" stop-color="#FF408F"/>
<stop offset="1" stop-color="#FF9419"/>
</linearGradient>
<linearGradient id="paint1_linear_1821_18411" x1="108.13" y1="58.8464" x2="559.099" y2="-281.187" gradientUnits="userSpaceOnUse">
<stop stop-color="#631BF3" stop-opacity="0"/>
<stop offset="0.4" stop-color="#EB30FF" stop-opacity="0.3"/>
<stop offset="0.7" stop-color="#FF408F"/>
<stop offset="1" stop-color="#FF9419"/>
</linearGradient>
<linearGradient id="paint2_linear_1821_18411" x1="259.161" y1="188.719" x2="582.029" y2="-170.078" gradientUnits="userSpaceOnUse">
<stop stop-color="#631BF3" stop-opacity="0"/>
<stop offset="0.4" stop-color="#EB30FF" stop-opacity="0.3"/>
<stop offset="0.7" stop-color="#FF408F"/>
<stop offset="1" stop-color="#FF9419"/>
</linearGradient>
<linearGradient id="paint3_linear_1821_18411" x1="407.062" y1="273.065" x2="619.422" y2="-80.5744" gradientUnits="userSpaceOnUse">
<stop stop-color="#631BF3" stop-opacity="0"/>
<stop offset="0.4" stop-color="#EB30FF" stop-opacity="0.3"/>
<stop offset="0.7" stop-color="#FF408F"/>
<stop offset="1" stop-color="#FF9419"/>
</linearGradient>
<linearGradient id="paint4_linear_1821_18411" x1="544.926" y1="319.721" x2="665.435" y2="-11.5736" gradientUnits="userSpaceOnUse">
<stop stop-color="#631BF3" stop-opacity="0"/>
<stop offset="0.4" stop-color="#EB30FF" stop-opacity="0.3"/>
<stop offset="0.7" stop-color="#FF408F"/>
<stop offset="1" stop-color="#FF9419"/>
</linearGradient>
<linearGradient id="paint5_linear_1821_18411" x1="668.196" y1="336.397" x2="715.301" y2="38.8084" gradientUnits="userSpaceOnUse">
<stop stop-color="#631BF3" stop-opacity="0"/>
<stop offset="0.4" stop-color="#EB30FF" stop-opacity="0.3"/>
<stop offset="0.7" stop-color="#FF408F"/>
<stop offset="1" stop-color="#FF9419"/>
</linearGradient>
<linearGradient id="paint6_linear_1821_18411" x1="774.349" y1="330.299" x2="765.368" y2="72.9428" gradientUnits="userSpaceOnUse">
<stop stop-color="#631BF3" stop-opacity="0"/>
<stop offset="0.4" stop-color="#EB30FF" stop-opacity="0.3"/>
<stop offset="0.7" stop-color="#FF408F"/>
<stop offset="1" stop-color="#FF9419"/>
</linearGradient>
<linearGradient id="paint7_linear_1821_18411" x1="867.07" y1="310.676" x2="810.134" y2="98.0608" gradientUnits="userSpaceOnUse">
<stop stop-color="#631BF3" stop-opacity="0"/>
<stop offset="0.4" stop-color="#EB30FF" stop-opacity="0.3"/>
<stop offset="0.7" stop-color="#FF408F"/>
<stop offset="1" stop-color="#FF9419"/>
</linearGradient>
<linearGradient id="paint8_linear_1821_18411" x1="932.643" y1="274.72" x2="856.161" y2="102.835" gradientUnits="userSpaceOnUse">
<stop stop-color="#631BF3" stop-opacity="0"/>
<stop offset="0.4" stop-color="#EB30FF" stop-opacity="0.3"/>
<stop offset="0.7" stop-color="#FF408F"/>
<stop offset="1" stop-color="#FF9419"/>
</linearGradient>
<linearGradient id="paint9_linear_1821_18411" x1="986.15" y1="235.452" x2="893.947" y2="103.693" gradientUnits="userSpaceOnUse">
<stop stop-color="#631BF3" stop-opacity="0"/>
<stop offset="0.4" stop-color="#EB30FF" stop-opacity="0.3"/>
<stop offset="0.7" stop-color="#FF408F"/>
<stop offset="1" stop-color="#FF9419"/>
</linearGradient>
<linearGradient id="paint10_linear_1821_18411" x1="1024.64" y1="193.784" x2="925.784" y2="98.2651" gradientUnits="userSpaceOnUse">
<stop stop-color="#631BF3" stop-opacity="0"/>
<stop offset="0.4" stop-color="#EB30FF" stop-opacity="0.3"/>
<stop offset="0.7" stop-color="#FF408F"/>
<stop offset="1" stop-color="#FF9419"/>
</linearGradient>
<linearGradient id="paint11_linear_1821_18411" x1="1050.13" y1="152.55" x2="951.598" y2="88.526" gradientUnits="userSpaceOnUse">
<stop stop-color="#631BF3" stop-opacity="0"/>
<stop offset="0.4" stop-color="#EB30FF" stop-opacity="0.3"/>
<stop offset="0.7" stop-color="#FF408F"/>
<stop offset="1" stop-color="#FF9419"/>
</linearGradient>
<linearGradient id="paint12_linear_1821_18411" x1="1064.78" y1="113.804" x2="971.662" y2="76.1581" gradientUnits="userSpaceOnUse">
<stop stop-color="#631BF3" stop-opacity="0"/>
<stop offset="0.4" stop-color="#EB30FF" stop-opacity="0.3"/>
<stop offset="0.7" stop-color="#FF408F"/>
<stop offset="1" stop-color="#FF9419"/>
</linearGradient>
<linearGradient id="paint13_linear_1821_18411" x1="1070.76" y1="78.9039" x2="986.487" y2="62.5132" gradientUnits="userSpaceOnUse">
<stop stop-color="#631BF3" stop-opacity="0"/>
<stop offset="0.4" stop-color="#EB30FF" stop-opacity="0.3"/>
<stop offset="0.7" stop-color="#FF408F"/>
<stop offset="1" stop-color="#FF9419"/>
</linearGradient>
<linearGradient id="paint14_linear_1821_18411" x1="1069.6" y1="48.9408" x2="997.213" y2="48.9408" gradientUnits="userSpaceOnUse">
<stop stop-color="#631BF3" stop-opacity="0"/>
<stop offset="0.4" stop-color="#EB30FF" stop-opacity="0.3"/>
<stop offset="0.7" stop-color="#FF408F"/>
<stop offset="1" stop-color="#FF9419"/>
</linearGradient>
</defs>
</svg>
